{"title":"Insight 2011 DvDRip XviD - AltriX","uid":7042207,"size":994185181,"categoryP":"video","categoryS":"movies","magnet":"?xt=urn:btih:ec19bc53b990c5eb44c1e6a95185583e3709cd89&amp;dn=Insight+2011+DvDRip+XviD+-+AltriX&amp;tr=udp%3A%2F%2Ftracker.openbittorrent.com%3A80&amp;tr=udp%3A%2F%2Fopen.demonii.com%3A1337&amp;tr=udp%3A%2F%2Ftracker.coppersurfer.tk%3A6969&amp;tr=udp%3A%2F%2Fexodus.desync.com%3A6969","seeders":0,"leechers":0,"uploader":"altrixforce84","files":9,"time":1329589276,"description":"Insight 2011 DvDRip XviD - AltriX\n\n__________________________________\n\nIMDB: &lt;a href=&quot; http://www.imdb.com/title/tt1687277/&quot; rel=&quot;nofollow&quot; target=&quot;_NEW&quot;&gt; http://www.imdb.com/title/tt1687277/&lt;/a&gt;\n\n___________________________________\n\nVIDEO INFO\n___________\n\nFormat                                   : AVI\nFormat/Info                              : Audio Video Interleave\nFile size                                : 947 MiB\nDuration                                 : 1h 31mn\nOverall bit rate                         : 1 442 Kbps\nWriting application                      : VirtualDubMod 1.5.10.2 (build 2540/release)\nWriting library                          : VirtualDubMod build 2540/release\n\nVideo\nID                                       : 0\nFormat                                   : MPEG-4 Visual\nFormat profile                           : Advanced Simple@L5\nFormat settings, BVOP                    : 1\nFormat settings, QPel                    : No\nFormat settings, GMC                     : No warppoints\nFormat settings, Matrix                  : Default (H.263)\nCodec ID                                 : XVID\nCodec ID/Hint                            : XviD\nDuration                                 : 1h 31mn\nBit rate                                 : 985 Kbps\nWidth                                    : 640 pixels\nHeight                                   : 352 pixels\nDisplay aspect ratio                     : 16:9\nFrame rate                               : 23.976 fps\nColor space                              : YUV\nChroma subsampling                       : 4:2:0\nBit depth                                : 8 bits\nScan type                                : Progressive\nCompression mode                         : Lossy\nBits/(Pixel*Frame)                       : 0.182\nStream size                              : 647 MiB (68%)\nWriting library                          : XviD 1.2.1 (UTC 2008-12-04)\n\nAudio\nID                                       : 1\nFormat                                   : AC-3\nFormat/Info                              : Audio Coding 3\nMode extension                           : CM (complete main)\nCodec ID                                 : 2000\nDuration                                 : 1h 31mn\nBit rate mode                            : Constant\nBit rate                                 : 448 Kbps\nChannel(s)                               : 6 channels\nChannel positions                        : Front: L C R, Side: L R, LFE\nSampling rate                            : 48.0 KHz\nBit depth                                : 16 bits\nCompression mode                         : Lossy\nStream size                              : 294 MiB (31%)\nAlignment                                : Aligned on interleaves\nInterleave, duration                     : 42 ms (1.00 video frame)\nInterleave, preload duration             : 512 ms\n_","torrent":{"xt":"urn:btih:ec19bc53b990c5eb44c1e6a95185583e3709cd89","amp;dn":"Insight+2011+DvDRip+XviD+-+AltriX","amp;tr":["udp%3A%2F%2Ftracker.openbittorrent.com%3A80","udp%3A%2F%2Fopen.demonii.com%3A1337","udp%3A%2F%2Ftracker.coppersurfer.tk%3A6969","udp%3A%2F%2Fexodus.desync.com%3A6969"],"infoHash":"ec19bc53b990c5eb44c1e6a95185583e3709cd89","infoHashBuffer":{"type":"Buffer","data":[236,25,188,83,185,144,197,235,68,193,230,169,81,133,88,62,55,9,205,137]},"announce":[],"urlList":[]}}